<svg id="Capa_1" enable-background="new 0 0 512 512" height="512" viewBox="0 0 512 512" width="512" xmlns="http://www.w3.org/2000/svg"><g><path d="m375.726 256c0-66.017-53.708-119.726-119.726-119.726s-119.726 53.709-119.726 119.726 53.709 119.726 119.726 119.726 119.726-53.709 119.726-119.726zm-119.726 104.726c-57.746 0-104.726-46.979-104.726-104.726s46.98-104.726 104.726-104.726 104.726 46.98 104.726 104.726-46.98 104.726-104.726 104.726z"/><path d="m121.517 152.46c-8.866 0-17.426-3.604-22.896-9.64-2.781-3.069-7.524-3.303-10.594-.521s-3.302 7.525-.521 10.594c8.267 9.121 20.981 14.566 34.011 14.566 15.638 0 29.264-10.265 31.694-23.878 1.84-10.306-2.975-23.82-22.008-30.84-10.471-3.862-20.186-8.078-22.679-9.173-2.529-1.864-3.755-4.834-3.294-8.046.584-4.071 3.722-7.342 8.393-8.749 12.975-3.908 24.714 5.489 24.967 5.694 3.171 2.641 7.882 2.224 10.54-.938 2.665-3.17 2.255-7.902-.916-10.567-.725-.61-17.996-14.854-38.917-8.551-10.252 3.088-17.5 11.127-18.915 20.98-1.317 9.179 2.658 18.007 10.375 23.038.332.216.679.406 1.041.567.469.209 11.634 5.179 24.214 9.819 8.917 3.29 13.449 8.44 12.433 14.131-1.01 5.659-7.619 11.514-16.928 11.514z"/><path d="m392.516 450.697c4.142 0 7.5-3.358 7.5-7.5v-74.151h15.137c4.142 0 7.5-3.358 7.5-7.5 0-4.143-3.358-7.5-7.5-7.5h-45.092c-4.142 0-7.5 3.357-7.5 7.5 0 4.142 3.358 7.5 7.5 7.5h14.955v74.151c0 4.142 3.358 7.5 7.5 7.5z"/><path d="m113.534 239.148c.131.007.261.01.391.01 3.965 0 7.278-3.11 7.484-7.116.212-4.137-2.969-7.662-7.106-7.875-55.684-2.856-99.303-48.733-99.303-104.441 0-57.747 46.979-104.726 104.726-104.726 55.708 0 101.585 43.619 104.443 99.303.212 4.137 3.741 7.314 7.875 7.105 4.137-.212 7.318-3.738 7.106-7.874-3.269-63.664-55.725-113.534-119.424-113.534-66.018 0-119.726 53.709-119.726 119.726 0 63.699 49.87 116.156 113.534 119.422z"/><path d="m279.957 121.408c4.126.206 7.663-2.969 7.875-7.105 2.857-55.684 48.734-99.303 104.442-99.303 57.747 0 104.726 46.979 104.726 104.726 0 55.708-43.619 101.585-99.303 104.442-4.137.213-7.318 3.738-7.106 7.875.206 4.006 3.518 7.116 7.484 7.116.129 0 .26-.003.391-.01 63.664-3.267 113.534-55.724 113.534-119.423 0-66.017-53.708-119.726-119.726-119.726-63.699 0-116.156 49.87-119.423 113.534-.212 4.136 2.969 7.662 7.106 7.874z"/><path d="m398.466 272.852c-4.12-.208-7.662 2.969-7.875 7.105s2.969 7.662 7.106 7.875c55.684 2.857 99.303 48.734 99.303 104.442 0 57.747-46.979 104.726-104.726 104.726-55.708 0-101.585-43.619-104.443-99.303-.212-4.137-3.733-7.31-7.875-7.105-4.137.212-7.318 3.738-7.106 7.874 3.269 63.664 55.725 113.534 119.424 113.534 66.018 0 119.726-53.709 119.726-119.726 0-63.699-49.87-116.156-113.534-119.422z"/><path d="m278.475 267.868c5.7-7.845 9.074-17.483 9.074-27.9 0-26.236-21.345-47.581-47.581-47.581s-47.581 21.344-47.581 47.581 21.345 47.581 47.581 47.581c10.417 0 20.056-3.374 27.9-9.074l30.925 30.925c1.464 1.464 3.384 2.197 5.303 2.197s3.839-.732 5.303-2.197c2.929-2.929 2.929-7.677 0-10.606zm-38.507 4.68c-17.965 0-32.581-14.616-32.581-32.581s14.616-32.581 32.581-32.581 32.581 14.616 32.581 32.581-14.616 32.581-32.581 32.581z"/><path d="m70.141 392.274c0 27.341 22.244 49.584 49.584 49.584 27.341 0 49.585-22.244 49.585-49.584 0-27.341-22.244-49.585-49.585-49.585-27.34 0-49.584 22.244-49.584 49.585zm84.17 0c0 19.07-15.515 34.584-34.585 34.584s-34.584-15.515-34.584-34.584c0-19.07 15.515-34.585 34.584-34.585 19.07 0 34.585 15.515 34.585 34.585z"/><path d="m232.043 390.592c-4.123-.21-7.662 2.969-7.875 7.105-2.857 55.684-48.734 99.303-104.442 99.303-57.747 0-104.726-46.979-104.726-104.726 0-55.708 43.619-101.585 99.303-104.442 4.137-.213 7.318-3.738 7.106-7.875s-3.73-7.312-7.875-7.105c-63.664 3.266-113.534 55.723-113.534 119.422 0 66.017 53.708 119.726 119.726 119.726 63.699 0 116.156-49.87 119.423-113.534.212-4.136-2.969-7.662-7.106-7.874z"/><path d="m410.511 161.092c1.323 3.724 4.855 6.215 8.803 6.215h.064c3.974-.027 7.503-2.573 8.782-6.335.106-.311.191-.628.255-.951l15.972-80.251c.808-4.062-1.83-8.011-5.892-8.82s-8.011 1.83-8.82 5.892l-11.551 58.038-18.155-58.933c-1.092-3.546-4.613-5.76-8.284-5.208-3.191.48-5.659 2.927-6.249 5.997l-17.998 58.146-11.509-58.182c-.804-4.063-4.75-6.705-8.813-5.902-4.063.804-6.706 4.75-5.902 8.813l15.909 80.425c.071.358.168.711.291 1.056 1.323 3.725 4.855 6.215 8.803 6.215h.065c3.974-.028 7.502-2.574 8.781-6.336.022-.065.043-.13.063-.195l17.682-57.124 17.603 57.138c.03.101.064.201.1.302z"/></g></svg>